<svg xmlns="http://www.w3.org/2000/svg" viewBox="0 0 38 24">
  <rect width="38" height="24" rx="3" fill="white"/>
  <rect x=".5" y=".5" width="37" height="23" rx="2.5" fill="none" stroke="#d9d9d9"/>
  <!-- Apple logo -->
  <path d="M13.5 5.8c.7-.9 1.2-2.2 1-3.3-1 .05-2.2.66-2.9 1.56-.6.8-1.1 2-.9 3.1.99.07 2-.5 2.8-1.36z" fill="#1a1a1a"/>
  <path d="M14.1 7.3c-1.55-.09-2.87.88-3.6.88-.76 0-1.92-.84-3.18-.81-1.63.02-3.14.95-3.97 2.41-1.7 2.94-.45 7.3 1.2 9.7.8 1.17 1.76 2.48 3.02 2.43 1.2-.05 1.67-.78 3.13-.78 1.47 0 1.88.78 3.17.76 1.31-.02 2.14-1.18 2.93-2.36.93-1.34 1.31-2.64 1.34-2.7-.03-.02-2.57-.99-2.6-3.94-.02-2.46 2-3.63 2.09-3.7-1.14-1.67-2.9-1.85-3.53-1.89z" fill="#1a1a1a"/>
  <text x="27" y="15.5" text-anchor="middle" font-family="-apple-system,Helvetica Neue,Arial,sans-serif" font-weight="600" font-size="7.5" fill="#1a1a1a">Pay</text>
</svg>
