<svg xmlns="http://www.w3.org/2000/svg" viewBox="0 0 38 24">
  <rect width="38" height="24" rx="3" fill="white"/>
  <rect x=".5" y=".5" width="37" height="23" rx="2.5" fill="none" stroke="#d9d9d9"/>
  <!-- G -->
  <path d="M16 12.5H12v-1.3h5.3c.06.3.1.62.1.94 0 1.3-.43 2.33-1.16 3.04C15.5 15.9 14.4 16.4 13 16.4c-1.93 0-3.56-1.3-3.56-3.4 0-2.1 1.63-3.4 3.56-3.4 1 0 1.78.38 2.38.92L14.3 11.6c-.38-.37-.9-.6-1.3-.6-1.25 0-2.16.93-2.16 2.4 0 1.47.91 2.4 2.16 2.4.76 0 1.34-.3 1.64-.76h-1.64v-1z" fill="#4285F4"/>
  <text x="27" y="15.5" text-anchor="middle" font-family="Arial,Helvetica,sans-serif" font-weight="500" font-size="7.5" fill="#5F6368">Pay</text>
</svg>
