<svg xmlns="http://www.w3.org/2000/svg" viewBox="0 0 38 24">
  <rect width="38" height="24" rx="3" fill="white"/>
  <rect x=".5" y=".5" width="37" height="23" rx="2.5" fill="none" stroke="#d9d9d9"/>
  <!-- PayPal logo paths -->
  <path d="M16.2 7H12.8c-.24 0-.44.17-.48.41L11 17.2c-.03.18.11.34.29.34h1.73c.24 0 .44-.17.48-.41l.37-2.34c.04-.24.24-.41.48-.41h1.08c2.25 0 3.55-1.09 3.89-3.25.16-.94.01-1.68-.42-2.2-.47-.57-1.3-.89-2.38-.93z" fill="#003087"/>
  <path d="M16.55 10.3c-.19 1.17-1.12 1.17-2.02 1.17h-.51l.36-2.27c.02-.14.15-.25.29-.25h.23c.61 0 1.19 0 1.49.35.17.21.22.52.16.99z" fill="#003087"/>
  <path d="M22.1 10.27h-1.73c-.15 0-.27.11-.3.25l-.07.46-.12-.17c-.36-.52-1.16-.7-1.96-.7-1.84 0-3.41 1.39-3.72 3.35-.16.97.07 1.9.62 2.55.51.6 1.24.84 2.1.84 1.48 0 2.31-.95 2.31-.95l-.07.45c-.03.18.11.35.29.35h1.56c.24 0 .44-.17.48-.41l.94-5.86c.03-.18-.11-.34-.29-.34zm-2.41 3.23c-.16.95-.93 1.59-1.9 1.59-.49 0-.88-.16-1.13-.45-.25-.29-.34-.7-.26-1.15.15-.94.93-1.6 1.88-1.6.48 0 .87.16 1.12.46.26.3.35.71.29 1.15z" fill="#009CDE"/>
  <path d="M26.93 10.27h-1.74c-.17 0-.32.08-.41.22l-2.36 3.48-.99-3.35c-.06-.21-.26-.35-.47-.35h-1.7c-.2 0-.34.2-.27.39l1.88 5.52-1.77 2.49c-.14.2 0 .47.24.47h1.73c.17 0 .32-.08.41-.22l5.68-8.2c.14-.2 0-.45-.23-.45z" fill="#003087"/>
</svg>
