<svg xmlns="http://www.w3.org/2000/svg" viewBox="0 0 38 24">
  <rect width="38" height="24" rx="3" fill="white"/>
  <rect x=".5" y=".5" width="37" height="23" rx="2.5" fill="none" stroke="#d9d9d9"/>
  <path d="M14.8 16.5h-2.1l1.3-8.1h2.1zm7.9-7.9c-.4-.16-.96-.33-1.7-.33-1.9 0-3.2 1-3.2 2.4 0 1.05.94 1.63 1.65 1.98.74.35 1 .58.99.9-.01.48-.59.7-1.14.7-.76 0-1.16-.11-1.78-.38l-.24-.11-.26 1.6c.44.2 1.24.37 2.09.38 1.97 0 3.25-1 3.26-2.47 0-.82-.49-1.45-1.57-1.97-.65-.33-1.05-.55-1.05-.89 0-.3.34-.62 1.07-.62.61-.01 1.05.13 1.4.28l.17.08.25-1.57zm4.86-.22h-1.47c-.46 0-.8.13-1 .6l-2.8 6.7h1.97l.4-1.1h2.41l.22 1.1h1.74l-1.47-7.3zm-2.3 4.8l.74-2.02.42 2.02h-1.16zM11.65 8.4l-1.87 5.53-.2-1.02c-.35-1.19-1.44-2.48-2.65-3.12l1.72 6.7h1.99l2.96-8.1h-1.95z" fill="#1A1F71"/>
  <path d="M8.43 8.4H5.37l-.03.16c2.38.61 3.95 2.08 4.6 3.85L9.26 9c-.12-.44-.47-.57-.83-.6z" fill="#F9A533"/>
</svg>
